
<svg width="40" height="40" viewBox="0 0 40 40" fill="none" xmlns="http://www.w3.org/2000/svg">
  <defs>
    <linearGradient id="gold" x1="0" y1="0" x2="40" y2="40" gradientUnits="userSpaceOnUse">
      <stop offset="0.25" stop-color="#FFDB6E"/>
      <stop offset="1" stop-color="#FFBC5E"/>
    </linearGradient>
  </defs>

  <circle cx="20" cy="20" r="18" stroke="url(#gold)" stroke-width="2" stroke-linecap="round" stroke-dasharray="90 20"/>

  <path d="M14 30V27C14 24 16 22 19 22H21C24 22 26 24 26 27V30"
        stroke="url(#gold)" stroke-width="2" stroke-linecap="round" stroke-linejoin="round"/>

  <path d="M14 28C11.5 25.5 10 22.2 10 18C10 12.5 14.5 8 20 8C25.5 8 30 12.5 30 18C30 20.5 29.2 22.7 28 24"
        stroke="url(#gold)" stroke-width="2" stroke-linecap="round" stroke-linejoin="round"/>

  <rect x="15.5" y="13.5" width="9" height="9" rx="2" stroke="url(#gold)" stroke-width="1.8"/>
  <text x="20" y="19.8" text-anchor="middle" font-size="3.8" font-family="Arial, sans-serif" fill="url(#gold)" font-weight="700">AI</text>

  <g stroke="url(#gold)" stroke-width="1.4" stroke-linecap="round">
    <line x1="20" y1="13.5" x2="20" y2="11"/>
    <line x1="17" y1="13.8" x2="15.3" y2="12.1"/>
    <line x1="24" y1="13.8" x2="25.7" y2="12.1"/>
    <line x1="15.5" y1="18" x2="13" y2="18"/>
    <line x1="24.5" y1="18" x2="27" y2="18"/>
    <line x1="17" y1="22.2" x2="15.3" y2="23.9"/>
    <line x1="24" y1="22.2" x2="25.7" y2="23.9"/>
  </g>

  <circle cx="31" cy="10" r="1.2" fill="url(#gold)"/>
  <circle cx="9" cy="31" r="1.2" fill="url(#gold)"/>
</svg>
